inDegrees=yes
name=ik_S47_A05_T02
DataType=double
version=3
OpenSimVersion=4.3-2021-08-27-4bc7ad9
endheader
time	pelvis_tilt	pelvis_list	pelvis_rotation	pelvis_tx	pelvis_ty	pelvis_tz	hip_flexion_r	hip_adduction_r	hip_rotation_r	knee_angle_r	knee_angle_r_beta	ankle_angle_r	subtalar_angle_r	mtp_angle_r	hip_flexion_l	hip_adduction_l	hip_rotation_l	knee_angle_l	knee_angle_l_beta	ankle_angle_l	subtalar_angle_l	mtp_angle_l	lumbar_extension	lumbar_bending	lumbar_rotation	arm_flex_r	arm_add_r	arm_rot_r	elbow_flex_r	pro_sup_r	wrist_flex_r	wrist_dev_r	arm_flex_l	arm_add_l	arm_rot_l	elbow_flex_l	pro_sup_l	wrist_flex_l	wrist_dev_l
0	0	0	0	0	0.9399999999999999	0	0	0	0	0	0	0	0	0	0	0	0	0	0	0	0	0	0	0	0	0	0	0	0	89.99999999963507	0	0	0	0	0	0	89.99999999869995	0	0
0.02	-17.20430520748991	-1.871240893533103	24.34170628401202	0	0.9399999999999999	0	3.741957359534729	-1.748657859929016	-1.260360238840457	5.806716727922058	0.1013463256328717	0	0	0	3.741957359534729	-1.748657859929016	-1.260360238840457	5.806716727922058	0.1013463256328717	0	0	0	-13.94290710219654	-3.730482070908833	1.867168524608808	44.11260289117288	-8.215423223025827	4.403430559345565	43.993137448797	119.3349201831388	0	0	43.34839998530362	1.122371329476703	5.429997832189915	36.59115844628321	114.8631709363634	0	0
0.04	-16.96367929115066	-3.298642613411511	23.54274979428221	0	0.9399999999999999	0	40.39163241429285	-13.46495862099271	-11.51477456004851	53.74601879409258	0.9380449877956678	0	0	0	40.39163241429285	-13.46495862099271	-11.51477456004851	53.74601879409258	0.9380449877956678	0	0	0	-13.52143675261303	-2.563158093969078	3.001513857962484	44.11036650699562	-8.230273863409112	4.374176721734229	44.01146496756345	119.3193237289623	0	0	43.32958441784198	1.127475266702062	5.473722200826235	36.61552949179168	114.851060717517	0	0
0.06	-16.95485943186877	-3.298222277513928	23.53444279308885	0	0.9399999999999999	0	40.40059865389944	-13.44704069012406	-11.50902338736132	53.74770798480974	0.9380744697353764	0	0	0	40.40059865389944	-13.44704069012406	-11.50902338736132	53.74770798480974	0.9380744697353764	0	0	0	-13.5180125417804	-2.557758295022034	3.000534755120154	44.10556429341094	-8.229079136132382	4.395714461564023	44.02751046428321	119.307189863252	0	0	43.33318451567035	1.108470107086351	5.497417357033359	36.60588405204693	114.839920556147	0	0
0.08	-16.94538435162613	-3.290551067413314	23.52884717225148	0	0.9399999999999999	0	40.41072943684154	-13.42581552534228	-11.50237614921949	53.74960439650175	0.9381075683633753	0	0	0	40.41072943684154	-13.42581552534228	-11.50237614921949	53.74960439650175	0.9381075683633753	0	0	0	-13.5119814491895	-2.544602945317564	2.999651775080759	44.09335931103359	-8.22336421024225	4.406871415643875	44.01941935207179	119.3052932302564	0	0	43.30987920831058	1.112748508869871	5.511120206007197	36.60046059664269	114.8223837318608	0	0
0.1	-16.92821348444859	-3.289217578110971	23.52080725062592	0	0.9399999999999999	0	40.41555531606311	-13.41263586435258	-11.49875646022728	53.75047402824934	0.9381227463006505	0	0	0	40.41555531606311	-13.41263586435258	-11.49875646022728	53.75047402824934	0.9381227463006505	0	0	0	-13.49826087669186	-2.545513019000244	2.996768551210592	44.07916067031282	-8.189205124015139	4.397687571706311	44.02042901772321	119.2987593407646	0	0	43.2919072803268	1.091901125824017	5.534462734216896	36.60698801847783	114.8046028738636	0	0
0.12	-16.91963429879653	-3.28524392088464	23.5167025579955	0	0.9399999999999999	0	40.41793469514907	-13.40412447583528	-11.49667189069969	53.75088036426072	0.9381298382019185	0	0	0	40.41793469514907	-13.40412447583528	-11.49667189069969	53.75088036426072	0.9381298382019185	0	0	0	-13.49001389567612	-2.543179472311869	2.996030021070506	44.08144715782887	-8.180561683051891	4.386608178642744	44.01466077449505	119.3025786009142	0	0	43.28122468159863	1.095980163945515	5.536364957303122	36.6082181254067	114.7955272314751	0	0
0.14	-16.90677342170223	-3.280156878214387	23.51185775851224	0	0.9399999999999999	0	40.41855577596755	-13.39969940644109	-11.49580756777575	53.75096320497002	0.9381312840450505	0	0	0	40.41855577596755	-13.39969940644109	-11.49580756777575	53.75096320497002	0.9381312840450505	0	0	0	-13.47646731809892	-2.54296833487686	2.994083275880395	44.0876830534952	-8.179336453764837	4.378228222959534	44.0105400742108	119.302181310098	0	0	43.28613561928429	1.090718342910579	5.544943874209215	36.60827208040052	114.7891142765622	0	0
0.16	-16.89473175068895	-3.276568153650848	23.52419184416976	0	0.9399999999999999	0	40.42039293153537	-13.39523821289293	-11.49451902290968	53.75130410070921	0.9381372337981053	0	0	0	40.42039293153537	-13.39523821289293	-11.49451902290968	53.75130410070921	0.9381372337981053	0	0	0	-13.46470333369673	-2.543823946616555	2.997006034259198	44.07755537338297	-8.164868827059143	4.373246395017931	43.98906463042549	119.2927053798868	0	0	43.28080433399607	1.116145365938729	5.558914334139851	36.57687832198118	114.7813796907486	0	0
0.18	-16.88432920449503	-3.272464325683821	23.52908770665325	0	0.9399999999999999	0	40.42289123801662	-13.38715684818547	-11.49246538523336	53.75174134087857	0.9381448650786828	0	0	0	40.42289123801662	-13.38715684818547	-11.49246538523336	53.75174134087857	0.9381448650786828	0	0	0	-13.45470338936219	-2.542433602398037	2.997872953476844	44.0753708360061	-8.168854556684657	4.376456524536791	43.99797712434516	119.2795097004782	0	0	43.28240852303469	1.101781967797259	5.56485591927116	36.58952599272587	114.7730331268407	0	0
0.2	-16.87769575070211	-3.267554607446336	23.52995926494925	0	0.9399999999999999	0	40.42115820175435	-13.38706288899451	-11.49301504586734	53.75136952350247	0.9381383756412537	0	0	0	40.42115820175435	-13.38706288899451	-11.49301504586734	53.75136952350247	0.9381383756412537	0	0	0	-13.44544847501699	-2.542915263116952	2.999149247378237	44.07512367339021	-8.158646405584799	4.369095085912205	43.98049405768683	119.2878224621931	0	0	43.29081533766578	1.106176143443428	5.553200312034647	36.56661452176139	114.7782451973299	0	0
0.22	-16.85932203464497	-3.262175758582669	23.54019915541714	0	0.9399999999999999	0	40.43556054408649	-13.36420485598776	-11.48466107076388	53.75414723634902	0.9381868558761008	0	0	0	40.43556054408649	-13.36420485598776	-11.48466107076388	53.75414723634902	0.9381868558761008	0	0	0	-13.43502469791285	-2.529690437042136	2.991850804217596	44.03615798177087	-8.12812079282798	4.402138856003222	43.9976289081303	119.2611212323119	0	0	43.28147436859964	1.115594796967435	5.56975758650158	36.54846720615751	114.7439822232772	0	0
0.24	-16.84591976443447	-3.261734892034601	23.55926229122763	0	0.9399999999999999	0	40.4499698450731	-13.33804831757479	-11.47582168265961	53.75689059860445	0.9382347365800331	0	0	0	40.4499698450731	-13.33804831757479	-11.47582168265961	53.75689059860445	0.9382347365800331	0	0	0	-13.43070245771187	-2.519862570392323	2.986787048322924	44.00851078719906	-8.108561449473495	4.462507436568129	44.0304320966093	119.2203167354318	0	0	43.2736169950192	1.117447525975011	5.600755293299386	36.53614431456175	114.7271312964451	0	0
0.26	-16.82712498934259	-3.261739342212014	23.58457643374232	0	0.9399999999999999	0	40.46510506517212	-13.31032301364167	-11.46649844771533	53.75977068011573	0.9382850034851308	0	0	0	40.46510506517212	-13.31032301364167	-11.46649844771533	53.75977068011573	0.9382850034851308	0	0	0	-13.42216820257657	-2.510057868304694	2.9742619048247	43.96848488108035	-8.095222515337284	4.558865363117254	44.04158201821383	119.1832791145929	0	0	43.28905287990241	1.127224068503236	5.639044898281203	36.44470145755215	114.7281536745897	0	0
0.28	-16.81219484468471	-3.258143654086399	23.60604647872046	0	0.9399999999999999	0	40.48465514978739	-13.27006087591201	-11.45379464334926	53.76344102914411	0.9383490631603734	0	0	0	40.48465514978739	-13.27006087591201	-11.45379464334926	53.76344102914411	0.9383490631603734	0	0	0	-13.41864149032199	-2.490970565305962	2.962466217043071	43.94506043329593	-8.100562648367831	4.65779486715594	44.09420703743192	119.1091713367106	0	0	43.30109239272503	1.136936074587637	5.666227683991639	36.42509206449444	114.7006596557267	0	0
0.3	-16.78749490876456	-3.25711611176399	23.63553480916001	0	0.9399999999999999	0	40.50751940388421	-13.22264581690619	-11.43890081696044	53.76773138029697	0.9384239439140575	0	0	0	40.50751940388421	-13.22264581690619	-11.43890081696044	53.76773138029697	0.9384239439140575	0	0	0	-13.40822502945049	-2.477682238756537	2.958982325003347	43.89167960131584	-8.098365046485537	4.716872575515894	44.17391138980823	119.0241034335397	0	0	43.28155627633468	1.1619345456177	5.702513771161266	36.44372586553273	114.6565037786119	0	0
0.32	-16.77015043709701	-3.257361876829222	23.67146094759056	0	0.9399999999999999	0	40.52390361720113	-13.18779596344381	-11.42809655599043	53.77079548684409	0.9384774226619367	0	0	0	40.52390361720113	-13.18779596344381	-11.42809655599043	53.77079548684409	0.9384774226619367	0	0	0	-13.40106500692798	-2.470773978711811	2.963358751571792	43.8492700825897	-8.111676452953558	4.756527417566298	44.24105934052016	118.9810169423407	0	0	43.30546462323817	1.184053467614262	5.732293728703687	36.40624889766062	114.6705784173213	0	0
0.34	-16.76893711409569	-3.254309658005182	23.67419277631561	0	0.9399999999999999	0	40.51934124753512	-13.19120890992436	-11.43013188990483	53.76986695123534	0.938461216658342	0	0	0	40.51934124753512	-13.19120890992436	-11.43013188990483	53.76986695123534	0.938461216658342	0	0	0	-13.39575771351532	-2.474274333589895	2.967123865107637	43.85172126128894	-8.11499132290821	4.753606823840022	44.26251528736011	118.9973046439986	0	0	43.35189461138079	1.19823138122592	5.739146083303416	36.36392063256007	114.690856421697	0	0
0.36	-16.7553136484447	-3.250576253369149	23.70677080602407	0	0.9399999999999999	0	40.5373178522404	-13.15244525871661	-11.41819690345359	53.77322298616379	0.9385197905176554	0	0	0	40.5373178522404	-13.15244525871661	-11.41819690345359	53.77322298616379	0.9385197905176554	0	0	0	-13.391980130248	-2.457971098343678	2.96249532453138	43.81025541093585	-8.139624525289095	4.804544076159725	44.43463388735815	118.9408886076653	0	0	43.36785940185511	1.230009801925209	5.751389473768307	36.30596053677207	114.6754124161001	0	0
0.3800000000000001	-16.75449524226853	-3.256315519524783	23.75702737220003	0	0.9399999999999999	0	40.5393128262623	-13.14752241976565	-11.41678263930224	53.77358989596865	0.9385261943018079	0	0	0	40.5393128262623	-13.14752241976565	-11.41678263930224	53.77358989596865	0.9385261943018079	0	0	0	-13.3951430024851	-2.457896431770876	2.947772535278267	43.64213012827047	-8.253437558776001	4.956135563311938	44.8492471561357	118.7591453738923	0	0	43.4002791105434	1.25531215332915	5.777762020313193	36.23434619964288	114.6908038706954	0	0
0.4000000000000001	-16.75289154460129	-3.252746608248063	23.80495226045555	0	0.9399999999999999	0	40.5404686639447	-13.1447003579935	-11.41596877227146	53.77380440891759	0.9385299382590552	0	0	0	40.5404686639447	-13.1447003579935	-11.41596877227146	53.77380440891759	0.9385299382590552	0	0	0	-13.39213987871137	-2.455157995873638	2.950272038391137	43.53600261648268	-8.395943695912647	5.02468703880269	45.20890184854344	118.7019129066826	0	0	43.47480581551186	1.336042459810139	5.804895396871957	36.16722939154599	114.6969400530713	0	0
0.4200000000000001	-16.7234036580624	-3.241638106853478	23.86219952594636	0	0.9399999999999999	0	40.54183586191503	-13.14134915165615	-11.41500351889467	53.77405711063964	0.9385343487361304	0	0	0	40.54183586191503	-13.14134915165615	-11.41500351889467	53.77405711063964	0.9385343487361304	0	0	0	-13.36163011330391	-2.453104206250191	2.93904960358455	43.33421436918852	-8.520117872450617	5.133872019551383	45.59054353248619	118.5560881708404	0	0	43.41211485327148	1.34873847025588	5.838650756208352	36.15459303825006	114.6706117269546	0	0
0.4400000000000001	-16.71839853305278	-3.239411455192254	23.9073340703278	0	0.9399999999999999	0	40.54293933588935	-13.1386594674684	-11.41422717710452	53.7742619746575	0.9385379242877609	0	0	0	40.54293933588935	-13.1386594674684	-11.41422717710452	53.7742619746575	0.9385379242877609	0	0	0	-13.35678653815792	-2.450012790677295	2.930179274899597	43.22410258029023	-8.667327228518687	5.220477950942042	45.9829660531591	118.448685205097	0	0	43.43749354281047	1.391058356396985	5.84497154534277	36.12989378802106	114.6659160856935	0	0
